G75*
%MOIN*%
%OFA0B0*%
%FSLAX25Y25*%
%IPPOS*%
%LPD*%
%AMOC8*
5,1,8,0,0,1.08239X$1,22.5*
%
%ADD10C,0.00000*%
D10*
X0001256Y0001000D02*
X0001256Y0111236D01*
X0257161Y0111236D01*
X0257161Y0001000D01*
X0001256Y0001000D01*
X0014543Y0020685D02*
X0014545Y0020845D01*
X0014551Y0021004D01*
X0014561Y0021163D01*
X0014575Y0021322D01*
X0014593Y0021481D01*
X0014614Y0021639D01*
X0014640Y0021796D01*
X0014670Y0021953D01*
X0014703Y0022109D01*
X0014741Y0022264D01*
X0014782Y0022418D01*
X0014827Y0022571D01*
X0014876Y0022723D01*
X0014929Y0022873D01*
X0014985Y0023022D01*
X0015045Y0023170D01*
X0015109Y0023316D01*
X0015177Y0023461D01*
X0015248Y0023604D01*
X0015322Y0023745D01*
X0015400Y0023884D01*
X0015482Y0024021D01*
X0015567Y0024156D01*
X0015655Y0024289D01*
X0015746Y0024420D01*
X0015841Y0024548D01*
X0015939Y0024674D01*
X0016040Y0024798D01*
X0016144Y0024918D01*
X0016251Y0025037D01*
X0016361Y0025152D01*
X0016474Y0025265D01*
X0016589Y0025375D01*
X0016708Y0025482D01*
X0016828Y0025586D01*
X0016952Y0025687D01*
X0017078Y0025785D01*
X0017206Y0025880D01*
X0017337Y0025971D01*
X0017470Y0026059D01*
X0017605Y0026144D01*
X0017742Y0026226D01*
X0017881Y0026304D01*
X0018022Y0026378D01*
X0018165Y0026449D01*
X0018310Y0026517D01*
X0018456Y0026581D01*
X0018604Y0026641D01*
X0018753Y0026697D01*
X0018903Y0026750D01*
X0019055Y0026799D01*
X0019208Y0026844D01*
X0019362Y0026885D01*
X0019517Y0026923D01*
X0019673Y0026956D01*
X0019830Y0026986D01*
X0019987Y0027012D01*
X0020145Y0027033D01*
X0020304Y0027051D01*
X0020463Y0027065D01*
X0020622Y0027075D01*
X0020781Y0027081D01*
X0020941Y0027083D01*
X0021101Y0027081D01*
X0021260Y0027075D01*
X0021419Y0027065D01*
X0021578Y0027051D01*
X0021737Y0027033D01*
X0021895Y0027012D01*
X0022052Y0026986D01*
X0022209Y0026956D01*
X0022365Y0026923D01*
X0022520Y0026885D01*
X0022674Y0026844D01*
X0022827Y0026799D01*
X0022979Y0026750D01*
X0023129Y0026697D01*
X0023278Y0026641D01*
X0023426Y0026581D01*
X0023572Y0026517D01*
X0023717Y0026449D01*
X0023860Y0026378D01*
X0024001Y0026304D01*
X0024140Y0026226D01*
X0024277Y0026144D01*
X0024412Y0026059D01*
X0024545Y0025971D01*
X0024676Y0025880D01*
X0024804Y0025785D01*
X0024930Y0025687D01*
X0025054Y0025586D01*
X0025174Y0025482D01*
X0025293Y0025375D01*
X0025408Y0025265D01*
X0025521Y0025152D01*
X0025631Y0025037D01*
X0025738Y0024918D01*
X0025842Y0024798D01*
X0025943Y0024674D01*
X0026041Y0024548D01*
X0026136Y0024420D01*
X0026227Y0024289D01*
X0026315Y0024156D01*
X0026400Y0024021D01*
X0026482Y0023884D01*
X0026560Y0023745D01*
X0026634Y0023604D01*
X0026705Y0023461D01*
X0026773Y0023316D01*
X0026837Y0023170D01*
X0026897Y0023022D01*
X0026953Y0022873D01*
X0027006Y0022723D01*
X0027055Y0022571D01*
X0027100Y0022418D01*
X0027141Y0022264D01*
X0027179Y0022109D01*
X0027212Y0021953D01*
X0027242Y0021796D01*
X0027268Y0021639D01*
X0027289Y0021481D01*
X0027307Y0021322D01*
X0027321Y0021163D01*
X0027331Y0021004D01*
X0027337Y0020845D01*
X0027339Y0020685D01*
X0027337Y0020525D01*
X0027331Y0020366D01*
X0027321Y0020207D01*
X0027307Y0020048D01*
X0027289Y0019889D01*
X0027268Y0019731D01*
X0027242Y0019574D01*
X0027212Y0019417D01*
X0027179Y0019261D01*
X0027141Y0019106D01*
X0027100Y0018952D01*
X0027055Y0018799D01*
X0027006Y0018647D01*
X0026953Y0018497D01*
X0026897Y0018348D01*
X0026837Y0018200D01*
X0026773Y0018054D01*
X0026705Y0017909D01*
X0026634Y0017766D01*
X0026560Y0017625D01*
X0026482Y0017486D01*
X0026400Y0017349D01*
X0026315Y0017214D01*
X0026227Y0017081D01*
X0026136Y0016950D01*
X0026041Y0016822D01*
X0025943Y0016696D01*
X0025842Y0016572D01*
X0025738Y0016452D01*
X0025631Y0016333D01*
X0025521Y0016218D01*
X0025408Y0016105D01*
X0025293Y0015995D01*
X0025174Y0015888D01*
X0025054Y0015784D01*
X0024930Y0015683D01*
X0024804Y0015585D01*
X0024676Y0015490D01*
X0024545Y0015399D01*
X0024412Y0015311D01*
X0024277Y0015226D01*
X0024140Y0015144D01*
X0024001Y0015066D01*
X0023860Y0014992D01*
X0023717Y0014921D01*
X0023572Y0014853D01*
X0023426Y0014789D01*
X0023278Y0014729D01*
X0023129Y0014673D01*
X0022979Y0014620D01*
X0022827Y0014571D01*
X0022674Y0014526D01*
X0022520Y0014485D01*
X0022365Y0014447D01*
X0022209Y0014414D01*
X0022052Y0014384D01*
X0021895Y0014358D01*
X0021737Y0014337D01*
X0021578Y0014319D01*
X0021419Y0014305D01*
X0021260Y0014295D01*
X0021101Y0014289D01*
X0020941Y0014287D01*
X0020781Y0014289D01*
X0020622Y0014295D01*
X0020463Y0014305D01*
X0020304Y0014319D01*
X0020145Y0014337D01*
X0019987Y0014358D01*
X0019830Y0014384D01*
X0019673Y0014414D01*
X0019517Y0014447D01*
X0019362Y0014485D01*
X0019208Y0014526D01*
X0019055Y0014571D01*
X0018903Y0014620D01*
X0018753Y0014673D01*
X0018604Y0014729D01*
X0018456Y0014789D01*
X0018310Y0014853D01*
X0018165Y0014921D01*
X0018022Y0014992D01*
X0017881Y0015066D01*
X0017742Y0015144D01*
X0017605Y0015226D01*
X0017470Y0015311D01*
X0017337Y0015399D01*
X0017206Y0015490D01*
X0017078Y0015585D01*
X0016952Y0015683D01*
X0016828Y0015784D01*
X0016708Y0015888D01*
X0016589Y0015995D01*
X0016474Y0016105D01*
X0016361Y0016218D01*
X0016251Y0016333D01*
X0016144Y0016452D01*
X0016040Y0016572D01*
X0015939Y0016696D01*
X0015841Y0016822D01*
X0015746Y0016950D01*
X0015655Y0017081D01*
X0015567Y0017214D01*
X0015482Y0017349D01*
X0015400Y0017486D01*
X0015322Y0017625D01*
X0015248Y0017766D01*
X0015177Y0017909D01*
X0015109Y0018054D01*
X0015045Y0018200D01*
X0014985Y0018348D01*
X0014929Y0018497D01*
X0014876Y0018647D01*
X0014827Y0018799D01*
X0014782Y0018952D01*
X0014741Y0019106D01*
X0014703Y0019261D01*
X0014670Y0019417D01*
X0014640Y0019574D01*
X0014614Y0019731D01*
X0014593Y0019889D01*
X0014575Y0020048D01*
X0014561Y0020207D01*
X0014551Y0020366D01*
X0014545Y0020525D01*
X0014543Y0020685D01*
X0014543Y0091551D02*
X0014545Y0091711D01*
X0014551Y0091870D01*
X0014561Y0092029D01*
X0014575Y0092188D01*
X0014593Y0092347D01*
X0014614Y0092505D01*
X0014640Y0092662D01*
X0014670Y0092819D01*
X0014703Y0092975D01*
X0014741Y0093130D01*
X0014782Y0093284D01*
X0014827Y0093437D01*
X0014876Y0093589D01*
X0014929Y0093739D01*
X0014985Y0093888D01*
X0015045Y0094036D01*
X0015109Y0094182D01*
X0015177Y0094327D01*
X0015248Y0094470D01*
X0015322Y0094611D01*
X0015400Y0094750D01*
X0015482Y0094887D01*
X0015567Y0095022D01*
X0015655Y0095155D01*
X0015746Y0095286D01*
X0015841Y0095414D01*
X0015939Y0095540D01*
X0016040Y0095664D01*
X0016144Y0095784D01*
X0016251Y0095903D01*
X0016361Y0096018D01*
X0016474Y0096131D01*
X0016589Y0096241D01*
X0016708Y0096348D01*
X0016828Y0096452D01*
X0016952Y0096553D01*
X0017078Y0096651D01*
X0017206Y0096746D01*
X0017337Y0096837D01*
X0017470Y0096925D01*
X0017605Y0097010D01*
X0017742Y0097092D01*
X0017881Y0097170D01*
X0018022Y0097244D01*
X0018165Y0097315D01*
X0018310Y0097383D01*
X0018456Y0097447D01*
X0018604Y0097507D01*
X0018753Y0097563D01*
X0018903Y0097616D01*
X0019055Y0097665D01*
X0019208Y0097710D01*
X0019362Y0097751D01*
X0019517Y0097789D01*
X0019673Y0097822D01*
X0019830Y0097852D01*
X0019987Y0097878D01*
X0020145Y0097899D01*
X0020304Y0097917D01*
X0020463Y0097931D01*
X0020622Y0097941D01*
X0020781Y0097947D01*
X0020941Y0097949D01*
X0021101Y0097947D01*
X0021260Y0097941D01*
X0021419Y0097931D01*
X0021578Y0097917D01*
X0021737Y0097899D01*
X0021895Y0097878D01*
X0022052Y0097852D01*
X0022209Y0097822D01*
X0022365Y0097789D01*
X0022520Y0097751D01*
X0022674Y0097710D01*
X0022827Y0097665D01*
X0022979Y0097616D01*
X0023129Y0097563D01*
X0023278Y0097507D01*
X0023426Y0097447D01*
X0023572Y0097383D01*
X0023717Y0097315D01*
X0023860Y0097244D01*
X0024001Y0097170D01*
X0024140Y0097092D01*
X0024277Y0097010D01*
X0024412Y0096925D01*
X0024545Y0096837D01*
X0024676Y0096746D01*
X0024804Y0096651D01*
X0024930Y0096553D01*
X0025054Y0096452D01*
X0025174Y0096348D01*
X0025293Y0096241D01*
X0025408Y0096131D01*
X0025521Y0096018D01*
X0025631Y0095903D01*
X0025738Y0095784D01*
X0025842Y0095664D01*
X0025943Y0095540D01*
X0026041Y0095414D01*
X0026136Y0095286D01*
X0026227Y0095155D01*
X0026315Y0095022D01*
X0026400Y0094887D01*
X0026482Y0094750D01*
X0026560Y0094611D01*
X0026634Y0094470D01*
X0026705Y0094327D01*
X0026773Y0094182D01*
X0026837Y0094036D01*
X0026897Y0093888D01*
X0026953Y0093739D01*
X0027006Y0093589D01*
X0027055Y0093437D01*
X0027100Y0093284D01*
X0027141Y0093130D01*
X0027179Y0092975D01*
X0027212Y0092819D01*
X0027242Y0092662D01*
X0027268Y0092505D01*
X0027289Y0092347D01*
X0027307Y0092188D01*
X0027321Y0092029D01*
X0027331Y0091870D01*
X0027337Y0091711D01*
X0027339Y0091551D01*
X0027337Y0091391D01*
X0027331Y0091232D01*
X0027321Y0091073D01*
X0027307Y0090914D01*
X0027289Y0090755D01*
X0027268Y0090597D01*
X0027242Y0090440D01*
X0027212Y0090283D01*
X0027179Y0090127D01*
X0027141Y0089972D01*
X0027100Y0089818D01*
X0027055Y0089665D01*
X0027006Y0089513D01*
X0026953Y0089363D01*
X0026897Y0089214D01*
X0026837Y0089066D01*
X0026773Y0088920D01*
X0026705Y0088775D01*
X0026634Y0088632D01*
X0026560Y0088491D01*
X0026482Y0088352D01*
X0026400Y0088215D01*
X0026315Y0088080D01*
X0026227Y0087947D01*
X0026136Y0087816D01*
X0026041Y0087688D01*
X0025943Y0087562D01*
X0025842Y0087438D01*
X0025738Y0087318D01*
X0025631Y0087199D01*
X0025521Y0087084D01*
X0025408Y0086971D01*
X0025293Y0086861D01*
X0025174Y0086754D01*
X0025054Y0086650D01*
X0024930Y0086549D01*
X0024804Y0086451D01*
X0024676Y0086356D01*
X0024545Y0086265D01*
X0024412Y0086177D01*
X0024277Y0086092D01*
X0024140Y0086010D01*
X0024001Y0085932D01*
X0023860Y0085858D01*
X0023717Y0085787D01*
X0023572Y0085719D01*
X0023426Y0085655D01*
X0023278Y0085595D01*
X0023129Y0085539D01*
X0022979Y0085486D01*
X0022827Y0085437D01*
X0022674Y0085392D01*
X0022520Y0085351D01*
X0022365Y0085313D01*
X0022209Y0085280D01*
X0022052Y0085250D01*
X0021895Y0085224D01*
X0021737Y0085203D01*
X0021578Y0085185D01*
X0021419Y0085171D01*
X0021260Y0085161D01*
X0021101Y0085155D01*
X0020941Y0085153D01*
X0020781Y0085155D01*
X0020622Y0085161D01*
X0020463Y0085171D01*
X0020304Y0085185D01*
X0020145Y0085203D01*
X0019987Y0085224D01*
X0019830Y0085250D01*
X0019673Y0085280D01*
X0019517Y0085313D01*
X0019362Y0085351D01*
X0019208Y0085392D01*
X0019055Y0085437D01*
X0018903Y0085486D01*
X0018753Y0085539D01*
X0018604Y0085595D01*
X0018456Y0085655D01*
X0018310Y0085719D01*
X0018165Y0085787D01*
X0018022Y0085858D01*
X0017881Y0085932D01*
X0017742Y0086010D01*
X0017605Y0086092D01*
X0017470Y0086177D01*
X0017337Y0086265D01*
X0017206Y0086356D01*
X0017078Y0086451D01*
X0016952Y0086549D01*
X0016828Y0086650D01*
X0016708Y0086754D01*
X0016589Y0086861D01*
X0016474Y0086971D01*
X0016361Y0087084D01*
X0016251Y0087199D01*
X0016144Y0087318D01*
X0016040Y0087438D01*
X0015939Y0087562D01*
X0015841Y0087688D01*
X0015746Y0087816D01*
X0015655Y0087947D01*
X0015567Y0088080D01*
X0015482Y0088215D01*
X0015400Y0088352D01*
X0015322Y0088491D01*
X0015248Y0088632D01*
X0015177Y0088775D01*
X0015109Y0088920D01*
X0015045Y0089066D01*
X0014985Y0089214D01*
X0014929Y0089363D01*
X0014876Y0089513D01*
X0014827Y0089665D01*
X0014782Y0089818D01*
X0014741Y0089972D01*
X0014703Y0090127D01*
X0014670Y0090283D01*
X0014640Y0090440D01*
X0014614Y0090597D01*
X0014593Y0090755D01*
X0014575Y0090914D01*
X0014561Y0091073D01*
X0014551Y0091232D01*
X0014545Y0091391D01*
X0014543Y0091551D01*
X0231078Y0091551D02*
X0231080Y0091711D01*
X0231086Y0091870D01*
X0231096Y0092029D01*
X0231110Y0092188D01*
X0231128Y0092347D01*
X0231149Y0092505D01*
X0231175Y0092662D01*
X0231205Y0092819D01*
X0231238Y0092975D01*
X0231276Y0093130D01*
X0231317Y0093284D01*
X0231362Y0093437D01*
X0231411Y0093589D01*
X0231464Y0093739D01*
X0231520Y0093888D01*
X0231580Y0094036D01*
X0231644Y0094182D01*
X0231712Y0094327D01*
X0231783Y0094470D01*
X0231857Y0094611D01*
X0231935Y0094750D01*
X0232017Y0094887D01*
X0232102Y0095022D01*
X0232190Y0095155D01*
X0232281Y0095286D01*
X0232376Y0095414D01*
X0232474Y0095540D01*
X0232575Y0095664D01*
X0232679Y0095784D01*
X0232786Y0095903D01*
X0232896Y0096018D01*
X0233009Y0096131D01*
X0233124Y0096241D01*
X0233243Y0096348D01*
X0233363Y0096452D01*
X0233487Y0096553D01*
X0233613Y0096651D01*
X0233741Y0096746D01*
X0233872Y0096837D01*
X0234005Y0096925D01*
X0234140Y0097010D01*
X0234277Y0097092D01*
X0234416Y0097170D01*
X0234557Y0097244D01*
X0234700Y0097315D01*
X0234845Y0097383D01*
X0234991Y0097447D01*
X0235139Y0097507D01*
X0235288Y0097563D01*
X0235438Y0097616D01*
X0235590Y0097665D01*
X0235743Y0097710D01*
X0235897Y0097751D01*
X0236052Y0097789D01*
X0236208Y0097822D01*
X0236365Y0097852D01*
X0236522Y0097878D01*
X0236680Y0097899D01*
X0236839Y0097917D01*
X0236998Y0097931D01*
X0237157Y0097941D01*
X0237316Y0097947D01*
X0237476Y0097949D01*
X0237636Y0097947D01*
X0237795Y0097941D01*
X0237954Y0097931D01*
X0238113Y0097917D01*
X0238272Y0097899D01*
X0238430Y0097878D01*
X0238587Y0097852D01*
X0238744Y0097822D01*
X0238900Y0097789D01*
X0239055Y0097751D01*
X0239209Y0097710D01*
X0239362Y0097665D01*
X0239514Y0097616D01*
X0239664Y0097563D01*
X0239813Y0097507D01*
X0239961Y0097447D01*
X0240107Y0097383D01*
X0240252Y0097315D01*
X0240395Y0097244D01*
X0240536Y0097170D01*
X0240675Y0097092D01*
X0240812Y0097010D01*
X0240947Y0096925D01*
X0241080Y0096837D01*
X0241211Y0096746D01*
X0241339Y0096651D01*
X0241465Y0096553D01*
X0241589Y0096452D01*
X0241709Y0096348D01*
X0241828Y0096241D01*
X0241943Y0096131D01*
X0242056Y0096018D01*
X0242166Y0095903D01*
X0242273Y0095784D01*
X0242377Y0095664D01*
X0242478Y0095540D01*
X0242576Y0095414D01*
X0242671Y0095286D01*
X0242762Y0095155D01*
X0242850Y0095022D01*
X0242935Y0094887D01*
X0243017Y0094750D01*
X0243095Y0094611D01*
X0243169Y0094470D01*
X0243240Y0094327D01*
X0243308Y0094182D01*
X0243372Y0094036D01*
X0243432Y0093888D01*
X0243488Y0093739D01*
X0243541Y0093589D01*
X0243590Y0093437D01*
X0243635Y0093284D01*
X0243676Y0093130D01*
X0243714Y0092975D01*
X0243747Y0092819D01*
X0243777Y0092662D01*
X0243803Y0092505D01*
X0243824Y0092347D01*
X0243842Y0092188D01*
X0243856Y0092029D01*
X0243866Y0091870D01*
X0243872Y0091711D01*
X0243874Y0091551D01*
X0243872Y0091391D01*
X0243866Y0091232D01*
X0243856Y0091073D01*
X0243842Y0090914D01*
X0243824Y0090755D01*
X0243803Y0090597D01*
X0243777Y0090440D01*
X0243747Y0090283D01*
X0243714Y0090127D01*
X0243676Y0089972D01*
X0243635Y0089818D01*
X0243590Y0089665D01*
X0243541Y0089513D01*
X0243488Y0089363D01*
X0243432Y0089214D01*
X0243372Y0089066D01*
X0243308Y0088920D01*
X0243240Y0088775D01*
X0243169Y0088632D01*
X0243095Y0088491D01*
X0243017Y0088352D01*
X0242935Y0088215D01*
X0242850Y0088080D01*
X0242762Y0087947D01*
X0242671Y0087816D01*
X0242576Y0087688D01*
X0242478Y0087562D01*
X0242377Y0087438D01*
X0242273Y0087318D01*
X0242166Y0087199D01*
X0242056Y0087084D01*
X0241943Y0086971D01*
X0241828Y0086861D01*
X0241709Y0086754D01*
X0241589Y0086650D01*
X0241465Y0086549D01*
X0241339Y0086451D01*
X0241211Y0086356D01*
X0241080Y0086265D01*
X0240947Y0086177D01*
X0240812Y0086092D01*
X0240675Y0086010D01*
X0240536Y0085932D01*
X0240395Y0085858D01*
X0240252Y0085787D01*
X0240107Y0085719D01*
X0239961Y0085655D01*
X0239813Y0085595D01*
X0239664Y0085539D01*
X0239514Y0085486D01*
X0239362Y0085437D01*
X0239209Y0085392D01*
X0239055Y0085351D01*
X0238900Y0085313D01*
X0238744Y0085280D01*
X0238587Y0085250D01*
X0238430Y0085224D01*
X0238272Y0085203D01*
X0238113Y0085185D01*
X0237954Y0085171D01*
X0237795Y0085161D01*
X0237636Y0085155D01*
X0237476Y0085153D01*
X0237316Y0085155D01*
X0237157Y0085161D01*
X0236998Y0085171D01*
X0236839Y0085185D01*
X0236680Y0085203D01*
X0236522Y0085224D01*
X0236365Y0085250D01*
X0236208Y0085280D01*
X0236052Y0085313D01*
X0235897Y0085351D01*
X0235743Y0085392D01*
X0235590Y0085437D01*
X0235438Y0085486D01*
X0235288Y0085539D01*
X0235139Y0085595D01*
X0234991Y0085655D01*
X0234845Y0085719D01*
X0234700Y0085787D01*
X0234557Y0085858D01*
X0234416Y0085932D01*
X0234277Y0086010D01*
X0234140Y0086092D01*
X0234005Y0086177D01*
X0233872Y0086265D01*
X0233741Y0086356D01*
X0233613Y0086451D01*
X0233487Y0086549D01*
X0233363Y0086650D01*
X0233243Y0086754D01*
X0233124Y0086861D01*
X0233009Y0086971D01*
X0232896Y0087084D01*
X0232786Y0087199D01*
X0232679Y0087318D01*
X0232575Y0087438D01*
X0232474Y0087562D01*
X0232376Y0087688D01*
X0232281Y0087816D01*
X0232190Y0087947D01*
X0232102Y0088080D01*
X0232017Y0088215D01*
X0231935Y0088352D01*
X0231857Y0088491D01*
X0231783Y0088632D01*
X0231712Y0088775D01*
X0231644Y0088920D01*
X0231580Y0089066D01*
X0231520Y0089214D01*
X0231464Y0089363D01*
X0231411Y0089513D01*
X0231362Y0089665D01*
X0231317Y0089818D01*
X0231276Y0089972D01*
X0231238Y0090127D01*
X0231205Y0090283D01*
X0231175Y0090440D01*
X0231149Y0090597D01*
X0231128Y0090755D01*
X0231110Y0090914D01*
X0231096Y0091073D01*
X0231086Y0091232D01*
X0231080Y0091391D01*
X0231078Y0091551D01*
X0231078Y0020685D02*
X0231080Y0020845D01*
X0231086Y0021004D01*
X0231096Y0021163D01*
X0231110Y0021322D01*
X0231128Y0021481D01*
X0231149Y0021639D01*
X0231175Y0021796D01*
X0231205Y0021953D01*
X0231238Y0022109D01*
X0231276Y0022264D01*
X0231317Y0022418D01*
X0231362Y0022571D01*
X0231411Y0022723D01*
X0231464Y0022873D01*
X0231520Y0023022D01*
X0231580Y0023170D01*
X0231644Y0023316D01*
X0231712Y0023461D01*
X0231783Y0023604D01*
X0231857Y0023745D01*
X0231935Y0023884D01*
X0232017Y0024021D01*
X0232102Y0024156D01*
X0232190Y0024289D01*
X0232281Y0024420D01*
X0232376Y0024548D01*
X0232474Y0024674D01*
X0232575Y0024798D01*
X0232679Y0024918D01*
X0232786Y0025037D01*
X0232896Y0025152D01*
X0233009Y0025265D01*
X0233124Y0025375D01*
X0233243Y0025482D01*
X0233363Y0025586D01*
X0233487Y0025687D01*
X0233613Y0025785D01*
X0233741Y0025880D01*
X0233872Y0025971D01*
X0234005Y0026059D01*
X0234140Y0026144D01*
X0234277Y0026226D01*
X0234416Y0026304D01*
X0234557Y0026378D01*
X0234700Y0026449D01*
X0234845Y0026517D01*
X0234991Y0026581D01*
X0235139Y0026641D01*
X0235288Y0026697D01*
X0235438Y0026750D01*
X0235590Y0026799D01*
X0235743Y0026844D01*
X0235897Y0026885D01*
X0236052Y0026923D01*
X0236208Y0026956D01*
X0236365Y0026986D01*
X0236522Y0027012D01*
X0236680Y0027033D01*
X0236839Y0027051D01*
X0236998Y0027065D01*
X0237157Y0027075D01*
X0237316Y0027081D01*
X0237476Y0027083D01*
X0237636Y0027081D01*
X0237795Y0027075D01*
X0237954Y0027065D01*
X0238113Y0027051D01*
X0238272Y0027033D01*
X0238430Y0027012D01*
X0238587Y0026986D01*
X0238744Y0026956D01*
X0238900Y0026923D01*
X0239055Y0026885D01*
X0239209Y0026844D01*
X0239362Y0026799D01*
X0239514Y0026750D01*
X0239664Y0026697D01*
X0239813Y0026641D01*
X0239961Y0026581D01*
X0240107Y0026517D01*
X0240252Y0026449D01*
X0240395Y0026378D01*
X0240536Y0026304D01*
X0240675Y0026226D01*
X0240812Y0026144D01*
X0240947Y0026059D01*
X0241080Y0025971D01*
X0241211Y0025880D01*
X0241339Y0025785D01*
X0241465Y0025687D01*
X0241589Y0025586D01*
X0241709Y0025482D01*
X0241828Y0025375D01*
X0241943Y0025265D01*
X0242056Y0025152D01*
X0242166Y0025037D01*
X0242273Y0024918D01*
X0242377Y0024798D01*
X0242478Y0024674D01*
X0242576Y0024548D01*
X0242671Y0024420D01*
X0242762Y0024289D01*
X0242850Y0024156D01*
X0242935Y0024021D01*
X0243017Y0023884D01*
X0243095Y0023745D01*
X0243169Y0023604D01*
X0243240Y0023461D01*
X0243308Y0023316D01*
X0243372Y0023170D01*
X0243432Y0023022D01*
X0243488Y0022873D01*
X0243541Y0022723D01*
X0243590Y0022571D01*
X0243635Y0022418D01*
X0243676Y0022264D01*
X0243714Y0022109D01*
X0243747Y0021953D01*
X0243777Y0021796D01*
X0243803Y0021639D01*
X0243824Y0021481D01*
X0243842Y0021322D01*
X0243856Y0021163D01*
X0243866Y0021004D01*
X0243872Y0020845D01*
X0243874Y0020685D01*
X0243872Y0020525D01*
X0243866Y0020366D01*
X0243856Y0020207D01*
X0243842Y0020048D01*
X0243824Y0019889D01*
X0243803Y0019731D01*
X0243777Y0019574D01*
X0243747Y0019417D01*
X0243714Y0019261D01*
X0243676Y0019106D01*
X0243635Y0018952D01*
X0243590Y0018799D01*
X0243541Y0018647D01*
X0243488Y0018497D01*
X0243432Y0018348D01*
X0243372Y0018200D01*
X0243308Y0018054D01*
X0243240Y0017909D01*
X0243169Y0017766D01*
X0243095Y0017625D01*
X0243017Y0017486D01*
X0242935Y0017349D01*
X0242850Y0017214D01*
X0242762Y0017081D01*
X0242671Y0016950D01*
X0242576Y0016822D01*
X0242478Y0016696D01*
X0242377Y0016572D01*
X0242273Y0016452D01*
X0242166Y0016333D01*
X0242056Y0016218D01*
X0241943Y0016105D01*
X0241828Y0015995D01*
X0241709Y0015888D01*
X0241589Y0015784D01*
X0241465Y0015683D01*
X0241339Y0015585D01*
X0241211Y0015490D01*
X0241080Y0015399D01*
X0240947Y0015311D01*
X0240812Y0015226D01*
X0240675Y0015144D01*
X0240536Y0015066D01*
X0240395Y0014992D01*
X0240252Y0014921D01*
X0240107Y0014853D01*
X0239961Y0014789D01*
X0239813Y0014729D01*
X0239664Y0014673D01*
X0239514Y0014620D01*
X0239362Y0014571D01*
X0239209Y0014526D01*
X0239055Y0014485D01*
X0238900Y0014447D01*
X0238744Y0014414D01*
X0238587Y0014384D01*
X0238430Y0014358D01*
X0238272Y0014337D01*
X0238113Y0014319D01*
X0237954Y0014305D01*
X0237795Y0014295D01*
X0237636Y0014289D01*
X0237476Y0014287D01*
X0237316Y0014289D01*
X0237157Y0014295D01*
X0236998Y0014305D01*
X0236839Y0014319D01*
X0236680Y0014337D01*
X0236522Y0014358D01*
X0236365Y0014384D01*
X0236208Y0014414D01*
X0236052Y0014447D01*
X0235897Y0014485D01*
X0235743Y0014526D01*
X0235590Y0014571D01*
X0235438Y0014620D01*
X0235288Y0014673D01*
X0235139Y0014729D01*
X0234991Y0014789D01*
X0234845Y0014853D01*
X0234700Y0014921D01*
X0234557Y0014992D01*
X0234416Y0015066D01*
X0234277Y0015144D01*
X0234140Y0015226D01*
X0234005Y0015311D01*
X0233872Y0015399D01*
X0233741Y0015490D01*
X0233613Y0015585D01*
X0233487Y0015683D01*
X0233363Y0015784D01*
X0233243Y0015888D01*
X0233124Y0015995D01*
X0233009Y0016105D01*
X0232896Y0016218D01*
X0232786Y0016333D01*
X0232679Y0016452D01*
X0232575Y0016572D01*
X0232474Y0016696D01*
X0232376Y0016822D01*
X0232281Y0016950D01*
X0232190Y0017081D01*
X0232102Y0017214D01*
X0232017Y0017349D01*
X0231935Y0017486D01*
X0231857Y0017625D01*
X0231783Y0017766D01*
X0231712Y0017909D01*
X0231644Y0018054D01*
X0231580Y0018200D01*
X0231520Y0018348D01*
X0231464Y0018497D01*
X0231411Y0018647D01*
X0231362Y0018799D01*
X0231317Y0018952D01*
X0231276Y0019106D01*
X0231238Y0019261D01*
X0231205Y0019417D01*
X0231175Y0019574D01*
X0231149Y0019731D01*
X0231128Y0019889D01*
X0231110Y0020048D01*
X0231096Y0020207D01*
X0231086Y0020366D01*
X0231080Y0020525D01*
X0231078Y0020685D01*
M02*
