G75*
%MOIN*%
%OFA0B0*%
%FSLAX25Y25*%
%IPPOS*%
%LPD*%
%AMOC8*
5,1,8,0,0,1.08239X$1,22.5*
%
%ADD10C,0.00300*%
%ADD11C,0.00500*%
%ADD12C,0.00400*%
D10*
X0008150Y0038552D02*
X0008150Y0040003D01*
X0008634Y0040487D01*
X0010085Y0040487D01*
X0009602Y0041498D02*
X0008634Y0041498D01*
X0008150Y0041982D01*
X0008150Y0042949D01*
X0008634Y0043433D01*
X0009118Y0043433D01*
X0009118Y0041498D01*
X0009602Y0041498D02*
X0010085Y0041982D01*
X0010085Y0042949D01*
X0010085Y0044445D02*
X0010085Y0045412D01*
X0010085Y0044928D02*
X0007183Y0044928D01*
X0007183Y0044445D01*
X0008634Y0046409D02*
X0008150Y0046893D01*
X0008150Y0048344D01*
X0009118Y0047860D02*
X0009118Y0046893D01*
X0008634Y0046409D01*
X0010085Y0046409D02*
X0010085Y0047860D01*
X0009602Y0048344D01*
X0009118Y0047860D01*
X0009602Y0049355D02*
X0010085Y0049839D01*
X0010085Y0050807D01*
X0009602Y0051290D01*
X0008634Y0051290D01*
X0008150Y0050807D01*
X0008150Y0049839D01*
X0008634Y0049355D01*
X0009602Y0049355D01*
X0011983Y0048359D02*
X0014885Y0048359D01*
X0014885Y0049326D02*
X0014885Y0047391D01*
X0014885Y0046380D02*
X0012950Y0044445D01*
X0012467Y0043433D02*
X0014402Y0041498D01*
X0014885Y0041982D01*
X0014885Y0042949D01*
X0014402Y0043433D01*
X0012467Y0043433D01*
X0011983Y0042949D01*
X0011983Y0041982D01*
X0012467Y0041498D01*
X0014402Y0041498D01*
X0014885Y0040487D02*
X0014885Y0038552D01*
X0014885Y0039519D02*
X0011983Y0039519D01*
X0012950Y0038552D01*
X0010085Y0038552D02*
X0008150Y0038552D01*
X0014885Y0044445D02*
X0012950Y0046380D01*
X0012950Y0047391D02*
X0011983Y0048359D01*
X0012467Y0050338D02*
X0011983Y0050821D01*
X0011983Y0051789D01*
X0012467Y0052273D01*
X0014402Y0050338D01*
X0014885Y0050821D01*
X0014885Y0051789D01*
X0014402Y0052273D01*
X0012467Y0052273D01*
X0012467Y0050338D02*
X0014402Y0050338D01*
X0010085Y0052302D02*
X0008150Y0052302D01*
X0008150Y0053753D01*
X0008634Y0054237D01*
X0010085Y0054237D01*
X0010085Y0055249D02*
X0010085Y0056700D01*
X0009602Y0057183D01*
X0009118Y0056700D01*
X0009118Y0055732D01*
X0008634Y0055249D01*
X0008150Y0055732D01*
X0008150Y0057183D01*
X0007183Y0058195D02*
X0007183Y0058679D01*
X0010085Y0058679D01*
X0010085Y0058195D02*
X0010085Y0059163D01*
X0009602Y0060159D02*
X0010085Y0060643D01*
X0010085Y0061611D01*
X0009602Y0062094D01*
X0008634Y0062094D01*
X0008150Y0061611D01*
X0008150Y0060643D01*
X0008634Y0060159D01*
X0009602Y0060159D01*
X0011983Y0059661D02*
X0011983Y0059177D01*
X0011983Y0059661D02*
X0014885Y0059661D01*
X0014885Y0059177D02*
X0014885Y0060145D01*
X0014402Y0061142D02*
X0013434Y0061142D01*
X0012950Y0061625D01*
X0012950Y0062593D01*
X0013434Y0063077D01*
X0013918Y0063077D01*
X0013918Y0061142D01*
X0014402Y0061142D02*
X0014885Y0061625D01*
X0014885Y0062593D01*
X0014885Y0064088D02*
X0012950Y0064088D01*
X0012950Y0064572D01*
X0013434Y0065056D01*
X0012950Y0065539D01*
X0013434Y0066023D01*
X0014885Y0066023D01*
X0014885Y0065056D02*
X0013434Y0065056D01*
X0013434Y0067035D02*
X0012950Y0067518D01*
X0012950Y0068486D01*
X0013434Y0068970D01*
X0013918Y0068970D01*
X0013918Y0067035D01*
X0014402Y0067035D02*
X0013434Y0067035D01*
X0014402Y0067035D02*
X0014885Y0067518D01*
X0014885Y0068486D01*
X0014885Y0069981D02*
X0012950Y0069981D01*
X0012950Y0071432D01*
X0013434Y0071916D01*
X0014885Y0071916D01*
X0014402Y0073411D02*
X0012467Y0073411D01*
X0012950Y0072928D02*
X0012950Y0073895D01*
X0014402Y0073411D02*
X0014885Y0073895D01*
X0010085Y0073419D02*
X0008150Y0073419D01*
X0008150Y0073902D01*
X0008634Y0074386D01*
X0008150Y0074870D01*
X0008634Y0075354D01*
X0010085Y0075354D01*
X0010085Y0074386D02*
X0008634Y0074386D01*
X0008634Y0072407D02*
X0008150Y0071923D01*
X0008150Y0070956D01*
X0008634Y0070472D01*
X0009602Y0070472D01*
X0010085Y0070956D01*
X0010085Y0071923D01*
X0009602Y0072407D01*
X0008634Y0072407D01*
X0008150Y0069461D02*
X0008150Y0068009D01*
X0008634Y0067526D01*
X0009602Y0067526D01*
X0010085Y0068009D01*
X0010085Y0069461D01*
X0010085Y0066536D02*
X0010085Y0066052D01*
X0009602Y0066052D01*
X0009602Y0066536D01*
X0010085Y0066536D01*
X0010085Y0065041D02*
X0010085Y0063590D01*
X0009602Y0063106D01*
X0008634Y0063106D01*
X0008150Y0063590D01*
X0008150Y0065041D01*
X0010569Y0065041D01*
X0011053Y0064557D01*
X0011053Y0064073D01*
X0013434Y0058166D02*
X0013918Y0058166D01*
X0013918Y0056231D01*
X0014402Y0056231D02*
X0013434Y0056231D01*
X0012950Y0056714D01*
X0012950Y0057682D01*
X0013434Y0058166D01*
X0014885Y0057682D02*
X0014885Y0056714D01*
X0014402Y0056231D01*
D11*
X0055685Y0062024D02*
X0055685Y0050213D01*
X0062280Y0043618D02*
X0074091Y0043618D01*
X0080685Y0050213D02*
X0080685Y0062024D01*
X0074091Y0068618D02*
X0062280Y0068618D01*
X0177732Y0062024D02*
X0177732Y0050213D01*
X0184327Y0043618D02*
X0196138Y0043618D01*
X0202732Y0050213D02*
X0202732Y0062024D01*
X0196138Y0068618D02*
X0184327Y0068618D01*
D12*
X0184760Y0072066D02*
X0184760Y0076670D01*
X0183225Y0075135D01*
X0181691Y0076670D02*
X0180156Y0076670D01*
X0180923Y0076670D02*
X0180923Y0072833D01*
X0180156Y0072066D01*
X0179389Y0072066D01*
X0178621Y0072833D01*
X0183225Y0072066D02*
X0186294Y0072066D01*
X0064247Y0072066D02*
X0061178Y0072066D01*
X0064247Y0075135D01*
X0064247Y0075903D01*
X0063480Y0076670D01*
X0061945Y0076670D01*
X0061178Y0075903D01*
X0059643Y0076670D02*
X0058109Y0076670D01*
X0058876Y0076670D02*
X0058876Y0072833D01*
X0058109Y0072066D01*
X0057341Y0072066D01*
X0056574Y0072833D01*
M02*
