G75*
%MOIN*%
%OFA0B0*%
%FSLAX25Y25*%
%IPPOS*%
%LPD*%
%AMOC8*
5,1,8,0,0,1.08239X$1,22.5*
%
%ADD10C,0.01600*%
%ADD11C,0.05906*%
D10*
X0048500Y0036433D02*
X0048500Y0075803D01*
X0087870Y0075803D01*
X0087870Y0036433D01*
X0048500Y0036433D01*
X0048500Y0037766D02*
X0087870Y0037766D01*
X0087870Y0039364D02*
X0048500Y0039364D01*
X0048500Y0040963D02*
X0087870Y0040963D01*
X0087870Y0042561D02*
X0048500Y0042561D01*
X0048500Y0044160D02*
X0087870Y0044160D01*
X0087870Y0045758D02*
X0048500Y0045758D01*
X0048500Y0047357D02*
X0087870Y0047357D01*
X0087870Y0048955D02*
X0048500Y0048955D01*
X0048500Y0050554D02*
X0087870Y0050554D01*
X0087870Y0052152D02*
X0048500Y0052152D01*
X0048500Y0053751D02*
X0087870Y0053751D01*
X0087870Y0055349D02*
X0048500Y0055349D01*
X0048500Y0056948D02*
X0087870Y0056948D01*
X0087870Y0058546D02*
X0048500Y0058546D01*
X0048500Y0060145D02*
X0087870Y0060145D01*
X0087870Y0061743D02*
X0048500Y0061743D01*
X0048500Y0063342D02*
X0087870Y0063342D01*
X0087870Y0064940D02*
X0048500Y0064940D01*
X0048500Y0066539D02*
X0087870Y0066539D01*
X0087870Y0068137D02*
X0048500Y0068137D01*
X0048500Y0069736D02*
X0087870Y0069736D01*
X0087870Y0071334D02*
X0048500Y0071334D01*
X0048500Y0072933D02*
X0087870Y0072933D01*
X0087870Y0074532D02*
X0048500Y0074532D01*
X0170547Y0074532D02*
X0209917Y0074532D01*
X0209917Y0075803D02*
X0209917Y0036433D01*
X0170547Y0036433D01*
X0170547Y0075803D01*
X0209917Y0075803D01*
X0209917Y0072933D02*
X0170547Y0072933D01*
X0170547Y0071334D02*
X0209917Y0071334D01*
X0209917Y0069736D02*
X0170547Y0069736D01*
X0170547Y0068137D02*
X0209917Y0068137D01*
X0209917Y0066539D02*
X0170547Y0066539D01*
X0170547Y0064940D02*
X0209917Y0064940D01*
X0209917Y0063342D02*
X0170547Y0063342D01*
X0170547Y0061743D02*
X0209917Y0061743D01*
X0209917Y0060145D02*
X0170547Y0060145D01*
X0170547Y0058546D02*
X0209917Y0058546D01*
X0209917Y0056948D02*
X0170547Y0056948D01*
X0170547Y0055349D02*
X0209917Y0055349D01*
X0209917Y0053751D02*
X0170547Y0053751D01*
X0170547Y0052152D02*
X0209917Y0052152D01*
X0209917Y0050554D02*
X0170547Y0050554D01*
X0170547Y0048955D02*
X0209917Y0048955D01*
X0209917Y0047357D02*
X0170547Y0047357D01*
X0170547Y0045758D02*
X0209917Y0045758D01*
X0209917Y0044160D02*
X0170547Y0044160D01*
X0170547Y0042561D02*
X0209917Y0042561D01*
X0209917Y0040963D02*
X0170547Y0040963D01*
X0170547Y0039364D02*
X0209917Y0039364D01*
X0209917Y0037766D02*
X0170547Y0037766D01*
D11*
X0190232Y0056118D03*
X0068185Y0056118D03*
M02*
